/* XPM */
static char *_fab343a84d543e5f4c39df2622b1efcdXSrN007j4Jvzno7[] = {
/* columns rows colors chars-per-pixel */
"32 32 142 2 ",
"   c #56302D",
".  c #5E3330",
"X  c #4C4B1F",
"o  c #4F561F",
"O  c #56561E",
"+  c #5A571E",
"@  c #5A581F",
"#  c #57651F",
"$  c #5B691F",
"%  c #5F721F",
"&  c #4D4521",
"*  c #4F4D20",
"=  c #514A22",
"-  c #5C452A",
";  c #505020",
":  c #555C22",
">  c #60422B",
",  c #6B462E",
"<  c #77482E",
"1  c #784C2C",
"2  c #635226",
"3  c #6D5327",
"4  c #566320",
"5  c #5B6124",
"6  c #5D6C22",
"7  c #7C6725",
"8  c #7D6825",
"9  c #647621",
"0  c #687722",
"q  c #647820",
"w  c #6D7F22",
"e  c #77732F",
"r  c #78742F",
"t  c #7A6D32",
"y  c #797530",
"u  c #83552C",
"i  c #835C28",
"p  c #8B5E2B",
"a  c #824C35",
"s  c #824A3B",
"d  c #8B5337",
"f  c #8D533A",
"g  c #93573A",
"h  c #975B3A",
"j  c #9A5C3D",
"k  c #836727",
"l  c #96722C",
"z  c #9A6135",
"x  c #9C613B",
"c  c #8D7B39",
"v  c #947C3D",
"b  c #A4742C",
"n  c #A06734",
"m  c #A2653B",
"M  c #A56A3B",
"N  c #A96C3B",
"B  c #B06E3D",
"V  c #AB713B",
"C  c #BD7F37",
"Z  c #B2713C",
"A  c #B8753E",
"S  c #B67A39",
"D  c #BB7B3C",
"F  c #B06A41",
"G  c #BB7541",
"H  c #BF7C42",
"J  c #B57649",
"K  c #B6794B",
"L  c #C27E42",
"P  c #6E8222",
"I  c #768F22",
"U  c #788E23",
"Y  c #7A9423",
"T  c #7F9A24",
"R  c #829E24",
"E  c #BD8234",
"W  c #BE803A",
"Q  c #86A525",
"!  c #89A627",
"~  c #8DAC2B",
"^  c #90B625",
"/  c #95BC26",
"(  c #C4823D",
")  c #C9853D",
"_  c #CE8B3C",
"`  c #D18F3B",
"'  c #D6933C",
"]  c #DA963B",
"[  c #DD9A3A",
"{  c #E19F39",
"}  c #E6A437",
"|  c #EFAD36",
" . c #E5A338",
".. c #E8A638",
"X. c #EBA938",
"o. c #F0AE36",
"O. c #F5B536",
"+. c #FCBC36",
"@. c #99C127",
"#. c #9FC827",
"$. c #9DC42A",
"%. c #A0C729",
"&. c #A4CD29",
"*. c #A7D02A",
"=. c #ABD42B",
"-. c #AED82C",
";. c #B1DC2D",
":. c #AFD830",
">. c #B2DC32",
",. c #B6E032",
"<. c #B8E334",
"1. c #FFC236",
"2. c #FFC836",
"3. c #AF8F47",
"4. c #B58C45",
"5. c #BA8E47",
"6. c #B78C48",
"7. c #B39147",
"8. c #B9954A",
"9. c #C78546",
"0. c #C98441",
"q. c #C78B47",
"w. c #C98844",
"e. c #C78749",
"r. c #C58C49",
"t. c #CA8F4C",
"y. c #C6944B",
"u. c #CC934C",
"i. c #D59541",
"p. c #D29C4C",
"a. c #D3A151",
"s. c #DAAC53",
"d. c #DDB055",
"f. c #E6BD57",
"g. c #E5BC58",
"h. c #EAC357",
"j. c #EDC758",
"k. c #F3CE5A",
"l. c #F6D35A",
"z. c #FEDE5D",
"x. c #FFE35D",
"c. c #FFEA5E",
/* pixels */
"=.*.=.=.*.=.-.>.-.=.*.&.-.=.&.=.=.%.=.*.=.=.=.=.>.-.=.-.=.=.=.*.",
"=.=.&.*.=.*.=.-.:.-.>.=.=.=.=.-.*.=.=.*.=.&.=.=.*.;.-.>.-.*.*.*.",
"&.*.&.=.=.*.=.&.=.-.-.%.=.&.-.;.-.=.*.=.=.&.=.=.*.=.=.=.*.=.=.*.",
"*.=.-.:.=.=.*.*.%.=.&.%.=.&.=.>.=.*.:.=.=.=.*.*.=.=.*.=.%.=.>.-.",
"-.>.;.-.=.*.=.-.=.=.*.=.-.=.-.-.*.=.-.=.:.>.=.=.=.%.&.*.*.*.;.,.",
"-.>.-.=.=.*.=.>.>.:.=.>.;.=.&.=.&.%.=.=.-.>.-.>.=.%.&.=.&.=.-.:.",
"=.=.=.*.%.*.=.=.>.<.:.*.%.P : 4 O q / #.*.;.>.*.*.=.=.=.&.=.=.*.",
"=.&.=.=.%.&.=.*.=.$.R 5 : c 7.3.4.l @ O U @.=.=.=.*.=.=.-.*.&.=.",
"&.=.*.=.*.=.-.&.Q : t 8.8.r.e.e.9.( E E k + R =.=.:.-.-.-.=.=.*.",
"=.&.=.*.>.>.;.Q y 8.u.9.e.[ | o.| { ) L ( E 8 T -.-.-.*.=.=.=.=.",
"&.%.&.=.-.>.~ e 5.w.' O.O.+.+...O.+.O.O.] ) W 8 T -.-.=.*.*.*.=.",
"&.#.=.=.-.Q y 6.i. . .+.1.1.[ q.[ +.1.1.} } ] C 8 Y =.*.%.&.=.-.",
"=.&.*.-.Q e 6.i.O...F [ +.[ p.h.a.] +. .F [ +.' E 8 Y =.=.-.=.=.",
"-.&.=.-.% v u.{ 2. .J u.( p.k.x.l.p.( u.J ] 2...( b # -.-.>.-.*.",
"=.-.;.;.q v r.[ 2. .r.h.s.k.z.z.z.l.d.h.u.{ 1...G k $ -.>.>.=.=.",
"&.=.-.,.q l 0.{ 1.O.' a.c.x.x.x.x.x.c.s.w.O.1.X.G u 6 -.:.-.=.*.",
"=.*.*.-.q i ) ] +.2.{ r.g.f.f.f.f.f.f.u.[ +.+.{ A 1 6 =.=.*.&.=.",
"-.*.=.-.9   D ) [ +.+.[ H H 0.9.L L H ] +.+. .A M . 4 -.=.&.=.=.",
"=.=.-.,.T - d C ) `  .+.O.O.O.O.O.O.O.1.X.` D m s - I =.=.=.=.%.",
"-.,.:.-.-.# 1 N S ) _ _ ..2.+.1.1.1.| _ D B x j a O @.&.=.:.=.=.",
",.:.-.-.*.R 2 n m V C _ ) ) ) ) ) ) D B m x m g 3 Y %.*.=.-.>.-.",
":.-.=.=.=.-.Q 2 f h j N W _ ` ` ) Z M x m h z 3 Y =.=.*.*.=.:.-.",
"=.*.*.*.=.-.>.! = > d f g N M N m j h f z 3 = R &.&.=.*.%.*.-.*.",
"*.*.-.=.&.-.>.-.@.Y = X > a a a 1 f , & & U / *.=.=.-.-.=.*.=.=.",
"*.*.*.#.*.*.=.*.-.=./ ^ P X o * * * 0 / @.:.;.*.=.-.,.-.=.*.*.=.",
"-.*.*.&.*.-.*.=.*.*.-.-.*.@.#.%.@.@.#.-.-.-.:.,.-.,.:.-.=.*.&.*.",
"*.*.*.*.-.=.-.=.*.=.>.-.=.-.-.-.*.-.=.=.*.*.=.-.-.-.=.*.-.*.*.*.",
"-.-.-.-.-.,.-.;.-.*.:.,.-.-.;.=.*.-.=.*.=.#.=.-.=.&.*.*.=.*.-.=.",
":.>.=.=.=.>.,.-.=.&.-.:.-.>.=.&.-.,.-.=.-.*.-.=.*.*.#.=.-.-.-.*.",
",.>.=.=.*.=.:.*.&.&.=.=.*.-.*.&.*.-.:.>.-.-.>.-.-.*.#.&.=.-.>.-.",
">.=.*.*.=.=.*.=.=.&.*.-.=.=.*.*.*.=.-.:.-.-.-.=.&.&.*.-.*.*.:.-.",
"=.:.=.*.=.*.*.=.*.*.-.,.=.*.*.*.*.=.=.=.*.=.*.&.=.=.*.=.=.*.*.-."
};
