/* XPM */
static char *_5513427c3864743c64b059f878c1600mkUrqwJqWWzh7WFN[] = {
/* columns rows colors chars-per-pixel */
"32 32 134 2 ",
"   c #51361E",
".  c #53391E",
"X  c #5C3E22",
"o  c #5C4B1E",
"O  c #5F501E",
"+  c #63551F",
"@  c #65591F",
"#  c #574A3C",
"$  c #5C4C3D",
"%  c #624525",
"&  c #654926",
"*  c #654729",
"=  c #664929",
"-  c #6B4D2C",
";  c #655820",
":  c #6C5A25",
">  c #6D502D",
",  c #71512D",
"<  c #614D35",
"1  c #6E5031",
"2  c #65523D",
"3  c #6A553E",
"4  c #6F583F",
"5  c #765632",
"6  c #785633",
"7  c #795933",
"8  c #755B3D",
"9  c #7A5D3B",
"0  c #6D6024",
"q  c #6E6A20",
"w  c #746426",
"e  c #726D22",
"r  c #776528",
"t  c #78632B",
"y  c #7D6B2A",
"u  c #747224",
"i  c #7A7624",
"p  c #645441",
"a  c #6B5741",
"s  c #6E5942",
"d  c #615348",
"f  c #67584B",
"g  c #6B5A4B",
"h  c #745D44",
"j  c #7B6145",
"k  c #796148",
"l  c #805E39",
"z  c #83702D",
"x  c #867A2B",
"c  c #806333",
"v  c #84633D",
"b  c #88653D",
"n  c #8C6B3E",
"m  c #8B7337",
"M  c #8A7D33",
"N  c #8F743B",
"B  c #91743E",
"V  c #937F3F",
"C  c #816545",
"Z  c #876845",
"A  c #8C6B44",
"S  c #816549",
"D  c #856848",
"F  c #8C6C49",
"G  c #916E45",
"H  c #906E49",
"J  c #937145",
"K  c #987645",
"L  c #967A43",
"P  c #997846",
"I  c #94714A",
"U  c #9B754C",
"Y  c #9D7A4D",
"T  c #977654",
"R  c #997752",
"E  c #9E7A52",
"W  c #A37E4D",
"Q  c #A37D52",
"!  c #798D1E",
"~  c #7F991F",
"^  c #7C8422",
"/  c #7E8B21",
"(  c #828625",
")  c #828C23",
"_  c #858129",
"`  c #869723",
"'  c #849F21",
"]  c #8B9C24",
"[  c #8E8034",
"{  c #96883D",
"}  c #9B8C3F",
"|  c #8AA323",
" . c #8CAE23",
".. c #91A228",
"X. c #99AD2A",
"o. c #92B425",
"O. c #96B925",
"+. c #9BBD26",
"@. c #94B628",
"#. c #9CB32B",
"$. c #9CBA2A",
"%. c #A1B72F",
"&. c #A0BC2B",
"*. c #A5BE31",
"=. c #9CC327",
"-. c #9EC428",
";. c #A1C627",
":. c #A2C52A",
">. c #A4CD29",
",. c #A8C92D",
"<. c #A7D02A",
"1. c #AAD42B",
"2. c #AED92C",
"3. c #ACD330",
"4. c #AFD931",
"5. c #B0D731",
"6. c #B2DC32",
"7. c #B6E133",
"8. c #9D8F42",
"9. c #A5834E",
"0. c #A8834F",
"q. c #AA884F",
"w. c #A68253",
"e. c #AA8552",
"r. c #AF8B53",
"t. c #B38C54",
"y. c #B79255",
"u. c #B3905B",
"i. c #BC9659",
"p. c #BC9A5C",
"a. c #BD9C60",
"s. c #C39F5F",
"d. c #C39E65",
"f. c #C5A263",
/* pixels */
"1.<.1.1.<.1.2.6.2.1.1.>.1.1.>.1.1.>.1.>.1.1.1.1.4.2.2.1.2.1.1.<.",
"1.1.>.<.1.<.1.2.4.2.4.1.2.1.1.2.1.1.1.>.1.>.1.1.1.2.2.2.1.<.<.<.",
">.<.>.1.1.<.1.>.1.1.1.>.1.<.;.:.&.:.1.1.1.<.1.1.<.1.2.2.<.1.1.<.",
"<.1.2.4.1.1.<.<.>.1.>.;.<.#.M N m M #.1.1.1.<.1.1.1.<.<.>.1.6.2.",
"2.6.6.2.1.<.1.2.1.1.1.1.;.x q.p.y.K u :.6.6.1.<.1.>.>.<.<.<.6.7.",
"2.6.2.1.1.<.1.6.6.2.1.2.,.z u.f.i.K : +.4.5.2.4.<.;.>.1.;.1.2.4.",
"1.1.1.<.;.1.<.1.7.7.2.7.,.z I G J 7 @ ;.2.2.6.1.1.1.1.1.>.1.1.<.",
"1.>.1.1.;.>.1.<.&.#.X.%...r v 7 l , : ..#.#.#.#.X.+.1.2.1.<.<.<.",
"<.<.<.1.>.2.1.#.{ P L L P J J L J n n N N B N N t _ 1.2.5.2.1.>.",
"<.<.<.<.5.7.&.} a.f.p.d.f.p.i.p.i.y.y.r.t.r.e.e.v x 2.1.>.1.1.2.",
">.>.<.1.2.*.8.p.f.w.Q Q E Q T U R T Q I U U G I 7 e 1.1.1.1.>.1.",
">.;.<.1.$.} a.f.e.S j h h k g F h f S k h F C h 6 e >.>.;.>.1.1.",
"1.>.<.$.} p.i.W G 8 a h 4 $ 4 Z s p 8 9 a 2 2 2 * q >.1.1.1.1.1.",
"1.<.X.} p.s.Y G A v j A b 9 b A j k b v 8 9 l 9 = q >.1.2.6.2.<.",
"1.1.X.{ 9.0.U F I F A F I H I H I H J H H H F Z 5 e 1.1.7.6.1.1.",
"<.1.1...: v A 8 h 4 2 p h a C h h 3 8 8 s h a s 1 u 5.2.5.1.1.<.",
"1.<.1.<.] : , 9 a 2 s 2 # p s p $ $ 3 9 $ $ # $ % e 1.2.1.1.>.1.",
"1.<.1.1.1.` : l D F H A h h f h k d j I C 8 4 9 = e <.1.1.>.<.<.",
"2.1.2.6.2.<.] : l G I I I H 9 A F k F n A A b b - e >.<.1.1.1.>.",
"2.7.4.2.1.<.<.' : - - 1 - - = - > > - & & = & % . e =.<.1.4.2.<.",
"6.6.4.1.<.<.<.-.] ^ ^ ) ! o   . .   o ^ ) ) / / ) | ;.<.1.2.6.2.",
"6.1.1.1.1.1.1.<.1.1.1.1.;.w X % & X @ +.2.2.1.1.1.<.1.<.<.1.6.1.",
"1.<.1.1.1.2.6.1.1.<.<.1.&.y 7 7 7 - @ o.>.-.>.<.>.>.1.1.>.1.1.<.",
"<.1.1.1.<.1.6.2.6.<.=.=. .w l , 7 > + | o.O.+.-.>.<.2.1.<.<.1.1.",
"<.>.<.>.>.1.1.<.<.>.O. .| 0 6 , 7 5 + '  .@.o.O.;.1.6.2.1.1.<.1.",
"1.1.>.>.<.1.<.1.1.-.+.O.| w 6 , , , o !  .o.$.;.>.6.6.1.1.<.;.1.",
"1.1.1.1.1.2.1.2.,.1.1.>.o.w > & , > O ! o.O.;.1.1.2.1.<.1.<.1.<.",
"1.1.2.1.2.6.2.6.1.1.5.6.>.] ( u i i / O.-.-.<.2.1.<.>.1.1.1.1.1.",
"2.6.1.1.2.6.6.2.1.>.2.6.2.3.;.O.=.;.>.1.2.1.1.1.<.1.>.<.2.6.2.<.",
"6.6.1.1.<.1.4.1.>.>.1.1.>.2.1.>.1.2.6.6.1.2.6.2.1.1.;.>.1.2.6.1.",
"6.2.<.1.1.1.<.1.1.>.1.2.1.1.1.<.>.1.2.5.2.6.2.1.;.<.1.1.<.1.2.2.",
"1.2.1.<.<.<.<.1.>.1.1.6.2.>.>.1.<.1.1.1.<.1.<.<.<.1.<.1.1.<.<.1."
};
