/* XPM */
static char *_f9383a501c64eb1ec83a2863e85720aFSM992v13duK6l76[] = {
/* columns rows colors chars-per-pixel */
"32 32 202 2 ",
"   c #51463B",
".  c #695A49",
"X  c #796852",
"o  c #AE240F",
"O  c #B5230F",
"+  c #B3280F",
"@  c #AE2510",
"#  c #AF2B14",
"$  c #B52512",
"%  c #B92611",
"&  c #B42B13",
"*  c #BC2A13",
"=  c #B52C19",
"-  c #AE3211",
";  c #AF381E",
":  c #B33514",
">  c #BD3017",
",  c #B2331A",
"<  c #BC341A",
"1  c #B63A19",
"2  c #B13923",
"3  c #B73924",
"4  c #C22D15",
"5  c #C42D1A",
"6  c #C73119",
"7  c #CE341E",
"8  c #CD3721",
"9  c #D53A23",
"0  c #DC3E26",
"q  c #D13720",
"w  c #AE4617",
"e  c #AC431B",
"r  c #AB4B16",
"t  c #AD5115",
"y  c #AC581D",
"u  c #BD461B",
"i  c #AC661B",
"p  c #A76D19",
"a  c #AC6C19",
"s  c #A7761A",
"d  c #AA741B",
"f  c #A9791A",
"g  c #A77E1B",
"h  c #BA4224",
"j  c #B2442C",
"k  c #BE4C2A",
"l  c #B34A28",
"z  c #AF5023",
"x  c #BC512E",
"c  c #B05F23",
"v  c #B54C32",
"b  c #BB5734",
"n  c #BE5A34",
"m  c #B5583A",
"M  c #B66E2D",
"N  c #B66229",
"B  c #AC7A21",
"V  c #B4792B",
"C  c #B86638",
"Z  c #BA7D33",
"A  c #C94729",
"S  c #DD4027",
"D  c #DF4228",
"F  c #DE4A2E",
"G  c #D3482B",
"H  c #CB4F32",
"J  c #C35F39",
"K  c #CB5636",
"L  c #DF5A39",
"P  c #E04329",
"I  c #E05B3B",
"U  c #C2643C",
"Y  c #E1633F",
"T  c #B85D41",
"R  c #88745B",
"E  c #BB6C43",
"W  c #BC6C4D",
"Q  c #BF7046",
"!  c #BD774B",
"~  c #BC7351",
"^  c #BA7C5A",
"/  c #C26647",
"(  c #C4784B",
")  c #DB794F",
"_  c #E16541",
"`  c #E26F48",
"'  c #E3734A",
"]  c #E47A4F",
"[  c #E57C51",
"{  c #D07266",
"}  c #A88B1D",
"|  c #A6901F",
" . c #AA931E",
".. c #A9981F",
"X. c #AE8420",
"o. c #AB9422",
"O. c #A69C21",
"+. c #A99C22",
"@. c #B09028",
"#. c #A9AD22",
"$. c #A8A622",
"%. c #A9B224",
"&. c #A5BF26",
"*. c #A5B123",
"=. c #B0B329",
"-. c #B4BA3D",
";. c #BABF3E",
":. c #A4C127",
">. c #AAC627",
",. c #A9C827",
"<. c #A6C72A",
"1. c #A5CD2A",
"2. c #AACC2A",
"3. c #ABC728",
"4. c #B0CC2D",
"5. c #A7D02A",
"6. c #ABD42B",
"7. c #AED82C",
"8. c #B1D52F",
"9. c #AEC432",
"0. c #AFD930",
"q. c #B2DC32",
"w. c #B5D733",
"e. c #B6E034",
"r. c #BE8B49",
"t. c #BA815E",
"y. c #BAAA47",
"u. c #BDAC4A",
"i. c #BDA54D",
"p. c #BABF41",
"a. c #BBB245",
"s. c #988265",
"d. c #A08969",
"f. c #BD8360",
"g. c #AF9571",
"h. c #BF9F76",
"j. c #CE824F",
"k. c #C18554",
"l. c #C78D5A",
"z. c #D88657",
"x. c #C4915D",
"c. c #E68759",
"v. c #E58657",
"b. c #C2B54E",
"n. c #C69A63",
"m. c #CC9E63",
"M. c #C59660",
"N. c #D59461",
"B. c #D99C65",
"V. c #D99C7A",
"C. c #D98672",
"Z. c #E69763",
"A. c #E88D71",
"S. c #CCAB60",
"D. c #D6A164",
"F. c #D7A86C",
"G. c #C3A57A",
"H. c #C4A87D",
"J. c #D7A273",
"K. c #D8A374",
"L. c #DCA578",
"P. c #DCA97B",
"I. c #D5A979",
"U. c #DDB476",
"Y. c #EBA069",
"T. c #ECAF74",
"R. c #EDB578",
"E. c #CAAC81",
"W. c #D0AE81",
"Q. c #CEB184",
"!. c #D2B385",
"~. c #DAB789",
"^. c #DDBE8C",
"/. c #D7B788",
"(. c #E7BB88",
"). c #F8BC8D",
"_. c #F3BE91",
"`. c #E1A584",
"'. c #EACA85",
"]. c #E6C787",
"[. c #F0C482",
"{. c #F2CD88",
"}. c #ECD78E",
"|. c #ECC391",
" X c #ECCA95",
".X c #E7C593",
"XX c #F1C691",
"oX c #F4CB97",
"OX c #F5CE98",
"+X c #F9CF9B",
"@X c #EFDB91",
"#X c #F6D29B",
"$X c #FBD59F",
"%X c #F3DB93",
"&X c #F4E296",
"*X c #F6EB9C",
"=X c #F4E599",
"-X c #FFDAA3",
";X c #FCD7A0",
":X c #F6F3A2",
">X c #FAFCA8",
",X c #F9F6A4",
/* pixels */
"6.5.6.6.5.6.6.e.7.6.6.,.2.2.,.1.,.:.,.1.5.6.6.7.q.6.6.7.6.6.6.5.",
"6.6.1.5.6.5.6.7.0.7.0.%.} f f f f f s g *.1.6.6.5.q.7.q.7.5.1.6.",
"1.5.1.6.6.1.5.5.>.#.$.d : & 3 b n n x z B +.#.>.6.6.6.6.5.6.6.5.",
"5.6.7.0.7.6.5.1.+.y w 1 q 9 ) [.'.'.U.l.N r r ..2.6.6.5.1.6.q.7.",
"7.q.q.7.6.6.,...Z j.H 7 0 P Z.,X>X>X:X].x.v : t | :.1.5.1.6.7.e.",
"7.q.7.6.6.:.$.Z B.'.] S D P ] [.:X>X>X*XU.U < + t | :.6.1.1.7.q.",
"6.6.6.1.&.+.M B.&X%X[ 0 D D P ] [.*X*X%Xc.G * % - r ..,.1.6.6.5.",
"6.1.6.,.| V D.}.>X%X] 0 D D P P ' c.c.v.Y q 4 % % + t  .,.5.5.6.",
"5.5.6.,.a U }.>X&XT.Y D P S P P D P D P 0 9 6 4 < h , p 4.7.6.5.",
"6.1.1.%.i U [.&XT.Y D P S P S S D S D S S 0 9 4 A ( v i %.5.6.6.",
"1.:.*.d u G ` ] Y D D D P 0 D P D D P P S S 9 6 x k.! M p *.5.6.",
"1.1.$.w K ' P 0 D P P 0 F ' v.c.v.I S S P 9 7 4 x l.x.C e O.7.6.",
"5.:.o.N B.R.I 0 P D D F ' (.=X*X%XZ.I 0 9 7 4 * k ( x.E z ..>.6.",
"6.| M F.%XR.I 0 0 0 S ` R.=X,X:X,X%XZ.A 4 4 * * < x ! l.Q c  .,.",
",.s J '.{.c.F 7 5 5 5 K z.N.N.N.N.N.( < O * * * * > H C b , d >.",
",.s x B.z.G 7 3 2 2 2 2 v j v j j j j 3 = % * * * * * > & @ d :.",
"1.s , A 3 $ = T ^ f.f.f.f.f.f.^ f.f.^ ^ v # $ % * * * * % @ p >.",
",.s o O $ @ = ~ G.H.!.^.^.^.^.^.^.Q.E.h.^ v = $ 3 J J h & @ d >.",
"2.f o O * * > ( G.Q..X$X-X;X;X;X#X.XE.E.H.~ 2 , J l.x.( h # d &.",
"4.} & % * % < ~ E. X;X-X-X-X-X-X;X#XOX X~.^ 2 m ( n.n.x.Q ; d >.",
"w.=.d : & * > / W.OX;X;X-X-X-X-X;X;X-X;X XI.W m E x.n.n.t.l f 3.",
"q.6.%.i - O = / T._.Q.!.;X-X-X XE./.;X-X;X XW.W m E ! ! C N o.2.",
"6.,.2.%.i - , E L./.X R .X-X-X!.. s.#X-X;X;X XI.~ j 1 e y ..3.6.",
"5.6.6.6.$.o.@.r.P.Q.. . .X-X-XE.  R #X-X-X-X;X XJ.E V } ..:.6.6.",
"6.1.5.:.1.6.2.u.L.(.s.s. X).XX~.R g.;X-X-X-X-X;X(.m.p.8.6.6.1.6.",
"6.5.1.1.5.6.2.i.L.OX X X).A.A.oX X X;X-X-X-X-X;X(.m.9.6.6.6.1.6.",
"6.5.6.6.6.7.4.i.F.#X-X$X_.{ C.+X-X-X-X-X-X-X;X;X(.m.-.1.6.6.5.1.",
"6.7.7.7.7.q.8.p.S.(.#X$XoXV.`.+X-X-X-X-X-X-X$X|.U.b.-.1.6.6.6.6.",
"0.q.6.6.6.q.e.8.p.S.(. XoX|.|.oXOXOXoXoXoXoXXXU.u.2.1.5.6.q.7.6.",
"e.q.6.6.6.6.0.5.<.-.S.V.V.J.J.J.J.J.K.K.K.L.F.b.9.5.:.1.6.7.q.6.",
"q.0.5.5.6.6.5.6.6.<.-.u.y.y.y.y.u.i.u.u.u.u.a.9.1.1.6.6.6.6.0.7.",
"6.6.6.5.6.5.1.6.2.6.6.w.6.2.9.5.2.5.2.6.5.4.2.1.6.6.5.6.6.1.5.6."
};
