/* XPM */
static char *_f05e285009549089cb9e42334602eb2ibA82srVi9UHocS3[] = {
/* columns rows colors chars-per-pixel */
"32 32 170 2 ",
"   c #452C23",
".  c #492F23",
"X  c #4D3223",
"o  c #4D3B22",
"O  c #523624",
"+  c #563B26",
"@  c #583C27",
"#  c #553529",
"$  c #5C3C29",
"%  c #613F2B",
"&  c #554C1F",
"*  c #5C5E1F",
"=  c #504721",
"-  c #584026",
";  c #554C24",
":  c #5C5425",
">  c #5E5824",
",  c #62412C",
"<  c #68472E",
"1  c #65492C",
"2  c #694B2F",
"3  c #625B25",
"4  c #695D2C",
"5  c #735D2E",
"6  c #644531",
"7  c #674B34",
"8  c #6C4C32",
"9  c #714F33",
"0  c #6F5235",
"q  c #735335",
"w  c #785737",
"e  c #755A34",
"r  c #74563A",
"t  c #795739",
"y  c #755A3D",
"u  c #7B5B3A",
"i  c #676527",
"p  c #696226",
"a  c #666B23",
"s  c #6B6C24",
"d  c #6C622C",
"f  c #6E6C29",
"g  c #74622D",
"h  c #77682F",
"j  c #7B6E2D",
"k  c #6B7222",
"l  c #707426",
"z  c #767F25",
"x  c #766030",
"c  c #7E6637",
"v  c #7E623B",
"b  c #815E3C",
"n  c #80782C",
"m  c #84643E",
"M  c #856541",
"N  c #896741",
"B  c #866842",
"V  c #8A6B44",
"C  c #8D6E49",
"Z  c #916E46",
"A  c #8F724A",
"S  c #947047",
"D  c #93744B",
"F  c #99764B",
"G  c #96794E",
"H  c #9C784C",
"J  c #9B7E52",
"K  c #758D1E",
"L  c #77911F",
"P  c #7E8B26",
"I  c #7A9421",
"U  c #7D9821",
"Y  c #818D26",
"T  c #85842B",
"R  c #878A2B",
"E  c #829025",
"W  c #859A27",
"Q  c #899F27",
"!  c #869428",
"~  c #8B9529",
"^  c #8D9A2A",
"/  c #85A322",
"(  c #8CA426",
")  c #8CAA24",
"_  c #8FAC29",
"`  c #92AC26",
"'  c #95AD28",
"]  c #8EB123",
"[  c #93B525",
"{  c #98B527",
"}  c #95B925",
"|  c #9BBD27",
" . c #97B12A",
".. c #9AB429",
"X. c #9DBD2A",
"o. c #9CC227",
"O. c #9DC229",
"+. c #A1C429",
"@. c #A5CD29",
"#. c #A8CF2A",
"$. c #A7D02A",
"%. c #AAD42A",
"&. c #AED82C",
"*. c #B1DA2F",
"=. c #AFD930",
"-. c #B2DC32",
";. c #B6E034",
":. c #9D8254",
">. c #A28456",
",. c #A08857",
"<. c #A18658",
"1. c #A68B5B",
"2. c #A98E5D",
"3. c #AA915E",
"4. c #AC8F60",
"5. c #AB9260",
"6. c #AC9160",
"7. c #AE9361",
"8. c #AD9460",
"9. c #AE9461",
"0. c #AE9561",
"q. c #AF9563",
"w. c #AF9662",
"e. c #AD9361",
"r. c #B09463",
"t. c #B09763",
"y. c #B39765",
"u. c #B19664",
"i. c #B19864",
"p. c #B29865",
"a. c #B39966",
"s. c #B39A66",
"d. c #B59B67",
"f. c #B69B67",
"g. c #B59C67",
"h. c #B39965",
"j. c #B69D68",
"k. c #B79E69",
"l. c #B69D68",
"z. c #B99D69",
"x. c #B89E69",
"c. c #BA9F6B",
"v. c #B99F6A",
"b. c #B9A06B",
"n. c #BAA06B",
"m. c #BBA16C",
"M. c #BBA26C",
"N. c #BCA16C",
"B. c #BCA36D",
"V. c #BEA36E",
"C. c #BEA56F",
"Z. c #BEA66E",
"A. c #BDA36D",
"S. c #C1A76F",
"D. c #C0A770",
"F. c #C1A770",
"G. c #C1A771",
"H. c #C2A770",
"J. c #C1A771",
"K. c #C1A871",
"L. c #C2A971",
"P. c #C2A972",
"I. c #C3A973",
"U. c #C3AA73",
"Y. c #C4AA73",
"T. c #C6AB75",
"R. c #C4AA73",
"E. c #C9AF77",
"W. c #CCB279",
"Q. c #D1B77D",
/* pixels */
"%.$.%.%.$.%.%.;.&.%.#.#.%.*.%.&.%.#.%.$.%.%.%.&.*.&.%.&.%.%.%.$.",
"%.%.$.$.%.$.%.&.&.&.-.@.........{ { {  .X.@.&.%.%.*.&.*.&.$.$.#.",
"#.#.@.%.%.$.$.$.%.@.+.! 5 5 5 x 5 e 5 5 j [ o.$.%.%.&.%.$.%.%.$.",
"#.%.%.=.&.$.#.@.X.R g c m V D D D D V M m g p ` +.@.$.%.@.%.*.&.",
"&.-.-.%.%.$.+.T j m M :.z.V.D.D.K.L.M.p.>.V y h f W O.@.$.$.*.;.",
"&.-.&.%.%.X.T c C 1.l.A.K.U.K.K.K.K.b.p.l.B.w.A 0 4 Q #.@.#.&.-.",
"%.%.%.#.[ T v G c.V.h.B.U.U.D.T.U.U.g.3.3.l.Z.b.:.y d ( @.%.%.$.",
"%.@.%.%.( e V >.1.y.h.l.A.T.T.T.A.n.p.3.3.w.i.A.l.:.7 a #.$.#.%.",
"%.%.%.+.R v :.J V :.y.1.<.V.K.D.h.r.7.w.t.k.3.3.A.l.M i  .%.%.$.",
"#.@.#.~ e G S.p.,.A V A >.c.C.D.L.S.K.n.3.3.3.2.w.K.6.0 i O.=.$.",
"$.o.$.~ e >.Y.t.c.2.1.z.1.J :.2.2.1.w.n.A.t.1.3.2.b.b.y > | $.%.",
"@.@.%.~ e 1.L.3.V.2.r.D.2.7.V.U.b.t.3.,.t.g.J p.2.1.3.y > | &.%.",
"%.@.%.~ e ,.T.n.D.1.6.K.l.E.Q.W.W.E.2.D :.G B G V M B 7 3 +.=.%.",
"%.$.&.~ e 1.T.A.T.7.y.W.U.B.y.1.1.3.,.,.p.:.V >.A V G 7 > +.=.$.",
"%.%.-.^ e G A.Y.Y.V.h.K.W.z.:.1.7.r.k.V.M.,.:.p.,.,.3.r : _ $.%.",
"$.%.&.~ 1 V h.W.V.A.A.l.B.1.C 2.f.y.g.h.w.5.1.3.3.5.D 6 ; I o.@.",
"%.$.%.E - u 3.Y.K.l.n.l.4.G y G 1.>.1.7.p.n.w.6.6.:.b # = I ) @.",
"%.$.&.E @ e G w.K.K.p.g.U.7.u D y.V.V.Y.V.2.3.A.3.C 9 # = I ] @.",
"%.%.&.! - 0 m G p.K.E.T.c.1.V u D 2.7.p.n.l.S.h.D q @   = L } O.",
"&.-.-.E + q m F >.w.D.W.T.V.>.u J V.A.D.Y.S.1.D e @ X   = I } @.",
";.-.&.E @ q m F H V G 2.r.z.:.r C >.1.1.>.G u 2 - X .   = L O.%.",
"-.%.&.E - q V H S w q u B C v , 8 u u q 8 8 % # X . X   = L O.%.",
"%.$.%.( p q b S Z N e 8 t e 8 % 8 q < # O % % O X X . o > / @.$.",
"#.$.%.@.R , q V N Z b q m t 0 , 8 q 9 % # , % O @ +   & K [ $.&.",
"$.@.$.@.) p 2 u t Z b b S m 2 - 2 9 9 2 % % $ O O O o a ) o.%.%.",
"%.$.@.@.#.` p 2 q m m b S m q , < < 8 9 $ # $ X . o a / o.$.o.%.",
"&.$.%.%.&.%.` p , t t t N m 9 # % % 2 2 @ O @ X o a W o.%.%.%.%.",
"%.%.&.&.%.-.&. .p 1 2 2 w 9 , O $ % % $ X . o o k ) o.$.%.%.%.%.",
"&.-.$.&.%.-.;.&.` P 3 + - + O   O O O . . o a P [ $.o.$.%.*.&.%.",
"-.-.&.$.%.%.=.%.$.o.( z s s 3 : 3 3 i h l E | #.%.%.@.@.%.&.-.%.",
"-.=.$.&.%.%.#.$.%.@.%.#.X.[ ( ( ( )  .X.O.*.&.%.o.$.%.%.$.%.&.&.",
"%.&.$.$.%.$.$.$.$.#.&.*.&.@.#.$.#.$.$.%.$.%.$.$.%.%.$.%.%.$.%.%."
};
